# xmcd
# Track frame offsets:
# 180
# 15568
# 34954
# 54408
# 72215
# 85485
# 98436
# 112912
# 129453
# 147844
# 162878
# 182478
# 202531
# 217670
# 236294
# 256109
# 269034
# 283983
# 302130
# 314396
#
# Disc length: 4402 seconds
# Revision: 0
# Processed by: cddbd v1.4PL0 Copyright (c) Steve Scherf et al.
# Submitted via: VisiTrax 2.9.5.181 - For more info visit www.synapsa.com
#
DISCID=0b113014
DTITLE=Various Artist - Country Dance Hit's Volume 2
DYEAR=1900
DGENRE=
TTITLE0=Billy Ray Cyrus - Achy Breaky Heart
TTITLE1=Twister Alley - Dance
TTITLE2=John Michael Montgomery - I Swear
TTITLE3=Vince Gill - I Still Believe In You
TTITLE4=Hank Williams Jr - All My Rowdy Friends Are Coming Over Tonight
TTITLE5=Chris LeDoux - Cadillac Ranch
TTITLE6=Anne Murray - Could I Have This Dance
TTITLE7=Oak Ridge Boys - Elvira
TTITLE8=Little Texas - God Bless Texas
TTITLE9=Forester Sisters - Men
TTITLE10=Brooks and Dunn - Neon Moon
TTITLE11=Mary Chapin Carpenter - I Feel Lucky
TTITLE12=John Denver - Thank God I'm A Country Boy
TTITLE13=Tim McGraw - Don't Take The Girl
TTITLE14=Gibson Miller Band - Texas Tattoo
TTITLE15=Garth Brooks - Papa Love Mama
TTITLE16=George Strait - All My Ex's Lite In Texas
TTITLE17=John Michael Montgomery - I Love The Way You Love Me
TTITLE18=Hank Williams Jr - Born To Boogie
TTITLE19=Georgia Sattelites - Keep Your Hands To Yourself
EXTD=
EXTT0=
EXTT1=
EXTT2=
EXTT3=
EXTT4=
EXTT5=
EXTT6=
EXTT7=
EXTT8=
EXTT9=
EXTT10=
EXTT11=
EXTT12=
EXTT13=
EXTT14=
EXTT15=
EXTT16=
EXTT17=
EXTT18=
EXTT19=
PLAYORDER=
